<svg version="1.1" viewBox="0.0 0.0 960.0 720.0" fill="none" stroke="none" stroke-linecap="square" stroke-miterlimit="10" xmlns:xlink="http://www.w3.org/1999/xlink" xmlns="http://www.w3.org/2000/svg"><clipPath id="p.0"><path d="m0 0l960.0 0l0 720.0l-960.0 0l0 -720.0z" clip-rule="nonzero"/></clipPath><g clip-path="url(#p.0)"><path fill="#000000" fill-opacity="0.0" d="m0 0l960.0 0l0 720.0l-960.0 0z" fill-rule="evenodd"/><path fill="#cfe2f3" d="m360.2782 484.32806l0 0c-62.02112 -62.02115 -62.571075 -162.02731 -1.2283325 -223.37006q55.53543 -55.535446 111.07086 -111.07088q56.149597 56.149597 112.299194 112.29921l0 0c62.02118 62.02115 62.571106 162.02734 1.2283936 223.37009l0 0c-61.342773 61.342743 -161.34897 60.792816 -223.37012 -1.228363z" fill-rule="evenodd"/><path fill="#cfe2f3" d="m615.67126 406.43353l-277.98425 -283.937l266.29926 -10.551186z" fill-rule="evenodd"/><path fill="#cfe2f3" d="m550.4593 271.14172l0 0c0 -68.67464 40.132263 -124.34645 89.63782 -124.34645l0 0c23.773438 0 46.57318 13.100754 63.383484 36.420242c16.810364 23.319473 26.254333 54.94748 26.254333 87.92621l0 0c0 68.67465 -40.132202 124.346466 -89.63782 124.346466l0 0c-49.505554 0 -89.63782 -55.671814 -89.63782 -124.346466zm44.81891 0c0 43.921875 20.066101 79.52756 44.81891 79.52756c24.752808 0 44.81891 -35.605682 44.81891 -79.52756c0 -43.921844 -20.066101 -79.52756 -44.81891 -79.52756l0 0c-24.752808 0 -44.81891 35.605713 -44.81891 79.52756z" fill-rule="evenodd"/></g></svg>