<svg version="1.1" viewBox="0.0 0.0 376.38582677165357 465.0603674540682" fill="none" stroke="none" stroke-linecap="square" stroke-miterlimit="10" xmlns:xlink="http://www.w3.org/1999/xlink" xmlns="http://www.w3.org/2000/svg"><clipPath id="p.0"><path d="m0 0l376.38583 0l0 465.06036l-376.38583 0l0 -465.06036z" clip-rule="nonzero"/></clipPath><g clip-path="url(#p.0)"><path fill="#000000" fill-opacity="0.0" d="m0 0l376.38583 0l0 465.06036l-376.38583 0z" fill-rule="evenodd"/><path fill="#38761d" d="m167.99344 261.03674l-44.009186 -37.429565l0 -149.71829c0 -20.67178 19.703583 -37.42957 44.009186 -37.42957c24.305603 0 44.009186 16.75779 44.009186 37.42957l0 149.71829z" fill-rule="evenodd"/><path fill="#6aa84f" d="m212.09317 244.5538l-25.82283 -22.891068l0 -91.564316c0 -12.642387 11.561279 -22.891068 25.82283 -22.891068c14.261566 0 25.822845 10.24868 25.822845 22.891068l0 91.564316z" fill-rule="evenodd"/><path fill="#b27d74" d="m106.45376 399.8294l147.47568 0l15.899963 -15.899963l0 -173.48587l0 0l-179.2756 0l0 0l0 173.48587z" fill-rule="evenodd"/><path fill="#b26e63" d="m94.69554 201.09448l170.99211 0l16.677185 16.67717l0 16.67717l0 0l-204.34647 0l0 0l0 -16.67717z" fill-rule="evenodd"/></g></svg>