<svg version="1.1" viewBox="0.0 0.0 960.0 720.0" fill="none" stroke="none" stroke-linecap="square" stroke-miterlimit="10" xmlns:xlink="http://www.w3.org/1999/xlink" xmlns="http://www.w3.org/2000/svg"><clipPath id="p.0"><path d="m0 0l960.0 0l0 720.0l-960.0 0l0 -720.0z" clip-rule="nonzero"/></clipPath><g clip-path="url(#p.0)"><path fill="#000000" fill-opacity="0.0" d="m0 0l960.0 0l0 720.0l-960.0 0z" fill-rule="evenodd"/><path fill="#dae3e5" d="m166.68504 173.18913l0 0c-5.8052063 -35.10338 13.254425 -69.85361 49.091187 -89.50487c35.836777 -19.65126 82.165665 -20.757149 119.32765 -2.848404l0 0c13.16391 -20.41056 37.25769 -34.502647 64.99347 -38.013676c27.735779 -3.5110245 55.855865 3.9713936 75.85446 20.183968l0 0c11.213959 -18.505531 33.232758 -30.93888 58.24301 -32.888054c25.010193 -1.9491749 49.47229 6.8616867 64.70581 23.30603l0 0c20.259705 -19.615814 52.493286 -27.87489 82.753174 -21.203472c30.259949 6.6714134 53.111206 27.07507 58.665955 52.382195l0 0c24.821472 5.5709763 45.497253 19.733131 56.685364 38.827415c11.188171 19.0943 11.791077 41.247604 1.6530151 60.736237l0 0c24.441956 26.17537 30.159485 61.053726 15.019043 91.61911c-15.140503 30.565338 -48.86432 52.225616 -88.586426 56.897583c-0.27996826 28.686707 -19.400085 55.009247 -49.99066 68.82184c-30.590576 13.812561 -67.874756 12.958252 -97.48157 -2.2336426l0 0c-12.610962 34.35727 -48.106506 59.637024 -91.15134 64.91748c-43.04483 5.280426 -85.92224 -10.38504 -110.107635 -40.228394l0 0c-29.64624 14.709869 -65.21927 18.947327 -98.69452 11.75647c-33.47525 -7.190857 -62.03293 -25.204315 -79.23102 -49.9769l0 0c-30.294739 2.9170532 -59.585556 -9.997955 -73.33553 -32.335327c-13.749977 -22.337372 -9.032074 -49.34201 11.812233 -67.6116l0 0c-27.02369 -13.087494 -40.812798 -39.057373 -34.176857 -64.36742c6.6359406 -25.310028 32.193214 -44.224854 63.34469 -46.881134z" fill-rule="evenodd"/><path fill="#000000" fill-opacity="0.0" d="m136.91837 285.79062l0 0c12.752563 6.1760254 27.484772 8.9776 42.218567 8.028595m19.298111 91.92056c6.336075 -0.6100769 12.546631 -1.902008 18.471497 -3.8424988m159.44518 42.06134c-4.4563904 -5.4989014 -8.1875 -11.3749695 -11.129761 -17.528076m212.3964 -7.1620483l0 0c2.2991943 -6.263855 3.7888184 -12.710693 4.444153 -19.233002m143.02252 -47.352783c0.2980957 -30.541412 -20.783752 -58.505432 -54.190308 -71.88071m127.75702 -76.63277c-5.410095 10.399933 -13.669189 19.625565 -24.1297 26.953552m-34.203674 -126.519936l0 0c0.92181396 4.19973 1.3484497 8.46257 1.2739258 12.729454m-142.69055 -43.906906l0 0c-5.053833 4.893173 -9.217468 10.361229 -12.361328 16.23391m-110.588684 -6.6540184l0 0c-2.6932373 4.4444313 -4.704376 9.147396 -5.9870605 14.000568m-134.86295 3.8295135l0 0c7.863434 3.7894745 15.138214 8.350517 21.66446 13.582939m-190.08113 78.77082l0 0c0.80010986 4.8381653 2.0643158 9.616669 3.7807922 14.290802" fill-rule="evenodd"/></g></svg>